<mxfile host="Electron" agent="Mozilla/5.0 (Windows NT 10.0; Win64; x64) AppleWebKit/537.36 (KHTML, like Gecko) draw.io/26.2.15 Chrome/134.0.6998.205 Electron/35.2.1 Safari/537.36" version="26.2.15">
  <diagram name="Page-1" id="iUYuVAZNS29girMXYtLB">
    <mxGraphModel dx="464" dy="840" grid="1" gridSize="10" guides="1" tooltips="1" connect="1" arrows="1" fold="1" page="1" pageScale="1" pageWidth="2339" pageHeight="3300" math="0" shadow="0">
      <root>
        <mxCell id="0" />
        <mxCell id="1" parent="0" />
        <mxCell id="6kigsyst4dU5gLNs8_a4-1" value="Progress Interface" style="rounded=0;whiteSpace=wrap;html=1;fillColor=#dae8fc;strokeColor=#6c8ebf;" vertex="1" parent="1">
          <mxGeometry x="380" y="310" width="120" height="60" as="geometry" />
        </mxCell>
        <mxCell id="6kigsyst4dU5gLNs8_a4-3" style="edgeStyle=orthogonalEdgeStyle;rounded=0;orthogonalLoop=1;jettySize=auto;html=1;entryX=0.5;entryY=1;entryDx=0;entryDy=0;" edge="1" parent="1" source="6kigsyst4dU5gLNs8_a4-2" target="6kigsyst4dU5gLNs8_a4-1">
          <mxGeometry relative="1" as="geometry" />
        </mxCell>
        <mxCell id="6kigsyst4dU5gLNs8_a4-2" value="EngineProgress" style="rounded=0;whiteSpace=wrap;html=1;fillColor=#fff2cc;strokeColor=#d6b656;" vertex="1" parent="1">
          <mxGeometry x="380" y="500" width="120" height="60" as="geometry" />
        </mxCell>
        <mxCell id="6kigsyst4dU5gLNs8_a4-4" value="implements" style="text;html=1;align=center;verticalAlign=middle;resizable=0;points=[];autosize=1;strokeColor=none;fillColor=none;" vertex="1" parent="1">
          <mxGeometry x="450" y="440" width="80" height="30" as="geometry" />
        </mxCell>
        <mxCell id="6kigsyst4dU5gLNs8_a4-6" style="edgeStyle=orthogonalEdgeStyle;rounded=0;orthogonalLoop=1;jettySize=auto;html=1;entryX=0;entryY=0.5;entryDx=0;entryDy=0;" edge="1" parent="1" source="6kigsyst4dU5gLNs8_a4-5" target="6kigsyst4dU5gLNs8_a4-1">
          <mxGeometry relative="1" as="geometry">
            <Array as="points">
              <mxPoint x="210" y="340" />
            </Array>
          </mxGeometry>
        </mxCell>
        <mxCell id="6kigsyst4dU5gLNs8_a4-5" value="ProgressDecorator&lt;div&gt;[ Abstract ]&lt;/div&gt;" style="rounded=0;whiteSpace=wrap;html=1;fillColor=#fff2cc;strokeColor=#d6b656;" vertex="1" parent="1">
          <mxGeometry x="150" y="430" width="120" height="60" as="geometry" />
        </mxCell>
        <mxCell id="6kigsyst4dU5gLNs8_a4-7" value="implements" style="text;html=1;align=center;verticalAlign=middle;resizable=0;points=[];autosize=1;strokeColor=none;fillColor=none;" vertex="1" parent="1">
          <mxGeometry x="210" y="388" width="80" height="30" as="geometry" />
        </mxCell>
        <mxCell id="6kigsyst4dU5gLNs8_a4-9" style="edgeStyle=orthogonalEdgeStyle;rounded=0;orthogonalLoop=1;jettySize=auto;html=1;entryX=0.5;entryY=1;entryDx=0;entryDy=0;" edge="1" parent="1" source="6kigsyst4dU5gLNs8_a4-8" target="6kigsyst4dU5gLNs8_a4-5">
          <mxGeometry relative="1" as="geometry" />
        </mxCell>
        <mxCell id="6kigsyst4dU5gLNs8_a4-8" value="BackupProgress&lt;div&gt;Decorating an EngineProgress&lt;/div&gt;" style="rounded=0;whiteSpace=wrap;html=1;fillColor=#fff2cc;strokeColor=#d6b656;" vertex="1" parent="1">
          <mxGeometry x="135" y="580" width="150" height="80" as="geometry" />
        </mxCell>
        <mxCell id="6kigsyst4dU5gLNs8_a4-10" value="extends" style="text;html=1;align=center;verticalAlign=middle;resizable=0;points=[];autosize=1;strokeColor=none;fillColor=none;" vertex="1" parent="1">
          <mxGeometry x="210" y="530" width="70" height="30" as="geometry" />
        </mxCell>
      </root>
    </mxGraphModel>
  </diagram>
</mxfile>
